<?xml version="1.0" encoding="UTF-8"?>
<svg id="_图层_1" xmlns="http://www.w3.org/2000/svg" xmlns:xlink="http://www.w3.org/1999/xlink" viewBox="0 0 1920 1080">
  <defs>
    <style>
      .cls-1 {
        fill: none;
      }

      .cls-2 {
        fill: #077c79;
      }

      .cls-3 {
        fill: #fff;
      }

      .cls-4 {
        clip-path: url(#clippath);
      }
    </style>
    <clipPath id="clippath">
      <rect class="cls-1" x="374.77" y="263.95" width="1201.3" height="564.79"/>
    </clipPath>
  </defs>
  <g class="cls-4">
    <rect class="cls-2" y="0" width="1920" height="1080"/>
    <g>
      <g>
        <path class="cls-3" d="M530.52,677.61l3.92-6.9,22.76,10.64-4.29,7.84c-5.22,9.83-13.65,18.22-25.28,25.19-11.63,6.97-23.04,10.45-34.24,10.45-12.31,0-23.66-3.05-34.05-9.14-10.39-6.09-18.6-14.33-24.63-24.72-6.03-10.38-9.05-21.7-9.05-33.96s3.01-23.57,9.05-33.96c6.03-10.38,14.24-18.59,24.63-24.63,10.38-6.03,21.74-9.05,34.05-9.05,10.94,0,22.17,3.36,33.68,10.07,11.5,6.72,19.99,14.86,25.47,24.44l4.29,8.02-22.76,10.45-3.92-6.53c-3.36-5.97-8.65-11.01-15.86-15.11-7.21-4.11-14.18-6.16-20.9-6.16-11.82,0-21.86,4.14-30.13,12.41-8.27,8.27-12.41,18.28-12.41,30.04s4.13,21.8,12.41,30.13c8.27,8.33,18.31,12.5,30.13,12.5,6.84,0,13.9-2.15,21.18-6.44s12.59-9.48,15.95-15.58Z"/>
        <path class="cls-3" d="M607.76,681.35l20.71-52.05h25.56l-41.42,104.85c-2.12,7.09-6.56,13.12-13.34,18.1-6.78,4.97-13.84,7.46-21.18,7.46h-10.82v-23.88h10.82c2.61,0,5.07-.9,7.37-2.71s3.82-3.95,4.57-6.44l.19-.56,4.85-12.31-32.09-84.52h25.19l19.59,52.05h0Z"/>
        <path class="cls-3" d="M706.26,651.12h-.19c-6.84,0-12.66,2.43-17.44,7.28-4.79,4.85-7.18,10.67-7.18,17.44s2.39,12.59,7.18,17.44,10.6,7.28,17.44,7.28c3.85,0,7.87-1.18,12.03-3.55,4.17-2.36,7.24-5.22,9.23-8.58l3.17-5.22,19.78,9.33,2.24.93-4.29,7.28c-3.98,6.59-10.07,12.25-18.28,16.98s-16.17,7.09-23.88,7.09c-13.56,0-25.13-4.79-34.7-14.37-9.58-9.58-14.37-21.14-14.37-34.7s4.79-25.12,14.37-34.7,21.14-14.37,34.7-14.37c7.71,0,15.67,2.33,23.88,7,8.21,4.66,14.3,10.29,18.28,16.88l4.48,7.46-22.2,10.45-3.17-5.22c-1.87-3.36-4.88-6.22-9.05-8.58-4.17-2.36-8.18-3.54-12.03-3.54h0Z"/>
        <path class="cls-3" d="M788.17,591.98h.37v105.6c0,1.49.75,2.24,2.24,2.24h10.07v22.76h-13.25c-6.1,0-11.32-2.15-15.67-6.44-4.36-4.29-6.53-9.48-6.53-15.58v-108.58h22.77Z"/>
        <path class="cls-3" d="M832.38,641.14c9.58-9.64,21.14-14.46,34.7-14.46s25.12,4.79,34.7,14.37,14.37,21.15,14.37,34.7-4.79,25.16-14.37,34.79c-9.58,9.64-21.15,14.46-34.7,14.46s-25.13-4.82-34.7-14.46c-9.58-9.64-14.37-21.2-14.37-34.7s4.79-25.06,14.37-34.7h0ZM891.71,675.75h-.19c0-6.72-2.4-12.47-7.18-17.26-4.79-4.79-10.54-7.24-17.26-7.37-6.84,0-12.66,2.43-17.44,7.28-4.79,4.85-7.18,10.67-7.18,17.44s2.39,12.59,7.18,17.44,10.6,7.28,17.44,7.28,12.65-2.43,17.44-7.28c4.79-4.85,7.18-10.7,7.18-17.54h.01Z"/>
        <path class="cls-3" d="M1012.98,666.05v56.72h-24.07v-56.9c-.25-4.35-1.99-8.08-5.22-11.19-3.24-3.11-7.09-4.66-11.57-4.66-.87,0-1.74.06-2.61.19-7.84,1.99-11.75,5.41-11.75,10.26v62.13h-24.44v-93.28h24.25v5.97c2.49-2.36,5.81-4.38,9.98-6.06s7.93-2.52,11.29-2.52h2.61c5.97,0,11.07,1.06,15.3,3.17,4.23,2.12,7.37,4.51,9.42,7.18,2.05,2.68,3.64,6.16,4.76,10.45,1.12,4.29,1.74,7.59,1.87,9.89.12,2.3.19,5.2.19,8.68v-.03Z"/>
        <path class="cls-3" d="M1101.23,689.74l21.46,10.07c-2.36,4.11-4.54,7.34-6.53,9.7s-4.66,4.79-8.02,7.28c-6.97,5.22-17.04,7.87-30.22,7.93-13.19.06-24.72-4.51-34.61-13.71s-14.83-20.8-14.83-34.79,4.85-25.72,14.55-35.17c9.7-9.45,21.58-14.18,35.63-14.18,8.58,0,17.1,2.49,25.56,7.46,11.32,6.72,18.41,17.42,21.27,32.09,1.12,5.6,1.49,11.75,1.12,18.47h-71.64c1.87,4.85,4.91,8.8,9.14,11.85s9.23,4.57,15.02,4.57,10.32-.93,13.62-2.8c3.29-1.87,6.13-4.79,8.49-8.77h-.01ZM1100.48,664.74c-2.49-5.1-5.91-8.86-10.26-11.29-4.36-2.43-8.71-3.45-13.06-3.08-4.36.37-8.52,1.84-12.5,4.39s-6.97,5.88-8.96,9.98h44.78Z"/>
        <path class="cls-3" d="M1231.08,683.77c0,11.32-4.73,20.99-14.18,29.01-9.45,8.02-20.77,12.03-33.96,12.03-11.44,0-21.58-3.11-30.41-9.33-8.95-6.34-14.49-14.3-16.6-23.88l-1.49-6.9,22.76-10.45,2.24,10.82c.99,4.85,3.54,8.46,7.65,10.82,4.35,2.74,9.58,4.11,15.67,4.11,6.47,0,11.97-1.59,16.51-4.76s6.81-7,6.81-11.47v-.75c-.25-5.72-3.11-9.64-8.58-11.75-4.6-1.87-9.33-3.11-14.18-3.73-6.59-.87-13.06-2.67-19.4-5.41-7.71-3.48-13.75-8.18-18.1-14.09-4.36-5.91-6.53-12.41-6.53-19.5,0-11.19,4.2-20.55,12.59-28.08,8.4-7.52,18.75-11.29,31.06-11.29,10.82,0,20.46,2.92,28.92,8.77,8.33,5.6,13.74,12.87,16.23,21.83l1.87,6.72-23.13,10.64-2.24-10.26c-.87-3.85-3.3-6.9-7.28-9.14-4.11-2.49-8.89-3.73-14.37-3.73s-10.17,1.34-13.71,4.01c-3.54,2.68-5.32,6.25-5.32,10.73s3.36,8.21,10.07,11.19c4.11,1.62,8.71,2.8,13.81,3.54,7.34,1.12,14.18,3.11,20.52,5.97,14.67,6.59,22.26,18.04,22.76,34.33h0Z"/>
        <path class="cls-3" d="M1246.94,722.58v-130.6h94.03v25h-69.22v27.99h65.3v24.81h-65.3v27.99h69.22v24.81h-94.03Z"/>
        <path class="cls-3" d="M1483.79,676.96c-2.3,7.4-5.01,13.46-8.12,18.19l18.66,18.66-24.25,11.01-12.31-11.94c-4.73,3.24-10.82,6-18.28,8.3-7.46,2.3-14.06,3.45-19.78,3.45-12.19,0-23.48-3.01-33.86-9.05-10.39-6.03-18.6-14.24-24.63-24.63-6.03-10.38-9.05-21.67-9.05-33.86s3.01-23.48,9.05-33.86c6.03-10.38,14.24-18.59,24.63-24.63,10.38-6.03,21.7-9.05,33.96-9.05s23.54,3.02,33.86,9.05c10.32,6.03,18.5,14.24,24.53,24.63s9.05,21.67,9.05,33.86v.19c0,5.72-1.15,12.28-3.45,19.68h-.01ZM1462.24,658.4v-1.31c0-11.69-4.14-21.67-12.41-29.94s-18.25-12.41-29.94-12.41-21.67,4.14-29.94,12.41c-8.27,8.27-12.41,18.22-12.41,29.85s4.13,21.58,12.41,29.85c8.27,8.27,18.25,12.41,29.94,12.41,2.86,0,6.22-.47,10.07-1.4,3.85-.93,7.09-2.02,9.7-3.27l-22.57-22.57,24.25-11.38,15.86,16.42c1.49-2.61,2.71-5.72,3.64-9.33.93-3.61,1.4-6.72,1.4-9.33h0Z"/>
      </g>
      <path class="cls-3" d="M534.43,513.71h-108.76v-31.78h108.76v-20.27h37.81v20.27h111.23l.13,15.84c.07,8.78-7.03,15.94-15.81,15.94h-95.56v37.29c0,10.27-8.33,18.6-18.6,18.6h-19.2v-55.89h0Z"/>
      <g>
        <path class="cls-3" d="M460.16,398.1c-9.86,5.85-23.72,11.56-34.49,16.13v-35.62c13.33-6.94,27.95-16.23,38.59-27.07,10.69-10.88,17.96-20.71,24.39-31.25h35.62c-7.31,19-16.62,35.16-27.94,48.49v92.6h-36.17v-63.29h0Z"/>
        <path class="cls-3" d="M565.91,449.47c-4.57-4.66-6.85-10.37-6.85-17.12v-17.26c-14.43,4.2-30.68,7.85-48.77,10.96v-32.06c20.27-4.01,36.53-7.94,48.77-11.78v-61.91h37.81v46.85c17.17-9.13,33.19-20.64,45.79-34.52h40.82c-10.41,15.16-22.65,28.45-36.71,39.86-14.07,11.42-31.45,21.14-49.9,29.18v23.56h86.61v15.64c0,8.61-6.98,15.59-15.59,15.59h-84.99c-6.76,0-12.42-2.33-16.99-6.99h0Z"/>
      </g>
      <path class="cls-3" d="M805.1,414.81h-101.64v-32.88h105.75v-61.64h38.9l.27,61.64h100.47v16.18c0,9.22-7.47,16.69-16.69,16.69h-79.4c11.51,47.49,43.56,86.12,96.16,115.88v38.63c-58.45-28.13-98.35-64.29-119.72-108.49-22.46,44.2-64.38,80.27-125.75,108.22v-38.63c56.8-29.95,90.68-68.49,101.64-115.61h.01Z"/>
      <g>
        <path class="cls-3" d="M1203.45,405.85v-22.46h-169.04v29.04h119.46c-12.04,12.07-22.92,22.19-32.61,30.42-8.39-8.58-16.08-15.99-23-22.19h-44.92c9.85,9.31,19.62,19.08,29.31,29.31h-53.69v30.15h73.69v57.4h-47.52v32.04h61.49c6.22,0,11.75-2.08,16.59-6.31,4.82-4.19,7.25-9.66,7.25-16.43v-66.71h39.46l-10.69,32.77h37.27l11.77-39.92v-23h-55.89c20.7-18.17,32.82-32.2,41.08-44.11h0Z"/>
        <path class="cls-3" d="M1127.29,339.74c-1.84-6.2-4.19-12.69-7.12-19.43h-41.11c3.65,7.85,6.31,14.32,7.96,19.43h-106.09l.04,178.57c0,6.83-5.54,12.37-12.37,12.37v38.65h0c27.76,0,50.26-22.5,50.26-50.26v-147.53h183.35c8.86,0,16.03-7.18,16.03-16.04v-15.76h-90.96,0Z"/>
      </g>
      <path class="cls-3" d="M1469.14,537.85v-191.11c0-6.93-2.44-12.45-7.25-16.56-4.84-4.11-10.39-6.17-16.59-6.17h-194.5v194.29c0,3.41-1.38,6.52-3.63,8.74-2.25,2.25-5.33,3.63-8.74,3.63v38.65c27.74,0,50.26-22.49,50.26-50.26v-163.28h138.05c3,0,5.41,2.44,5.41,5.41v192.17c0,8.82,7.15,15.97,15.97,15.97h44.76v-31.47h-23.74Z"/>
      <path class="cls-3" d="M1376.49,537.5v-1.91c2.46-26.58,4.57-49.54-15.28-69.23l-.8-.79-.8.79c-19.86,19.69-17.74,42.65-15.29,69.23v1.9h-35.59v-1.7c1.17-35.62,7.16-63.66,32.61-85.08l1.3-1.09-1.33-1.05c-15.09-11.83-24.32-29.3-25.33-47.95-.35-6.29-.4-15.48-.4-15.56v-1.7h32.17l-.53,2.11c-1.16,6.57-2.07,19.74,4.96,33.59,1.98,3.89,4.46,7.55,7.37,10.86l.86.97.86-.97c2.91-3.31,5.39-6.96,7.37-10.86,7.02-13.85,6.11-27.02,4.95-33.64l-.35-1.99,2.05-.07h29.95v1.7c0,.08-.05,9.3-.4,15.56-1.01,18.64-10.25,36.12-25.34,47.95l-1.32,1.04,1.3,1.09c25.46,21.42,31.45,49.46,32.61,84.98l.06,1.76-1.8.05h-33.86Z"/>
    </g>
  </g>
</svg>