<?xml version="1.0" encoding="UTF-8"?>
<svg xmlns="http://www.w3.org/2000/svg" version="1.1" viewBox="0 0 1920 1080">
  <defs>
    <style>
      .cls-1 {
        fill: #077c79;
      }

      .cls-2 {
        fill: #fff;
      }
    </style>
  </defs>
  <!-- Generator: Adobe Illustrator 28.6.0, SVG Export Plug-In . SVG Version: 1.2.0 Build 709)  -->
  <g>
    <g id="_图层_1">
      <rect class="cls-1" x="397.9" y="428.2" width="1119.3" height="218.5"/>
      <g>
        <path class="cls-2" d="M530.5,543.2l3.9-6.9,22.8,10.6-4.3,7.8c-5.2,9.8-13.7,18.2-25.3,25.2-11.6,7-23,10.5-34.2,10.5s-23.7-3-34-9.1c-10.4-6.1-18.6-14.3-24.6-24.7-6-10.4-9-21.7-9-34s3-23.6,9-34c6-10.4,14.2-18.6,24.6-24.6,10.4-6,21.7-9,34-9s22.2,3.4,33.7,10.1c11.5,6.7,20,14.9,25.5,24.4l4.3,8-22.8,10.5-3.9-6.5c-3.4-6-8.7-11-15.9-15.1-7.2-4.1-14.2-6.2-20.9-6.2-11.8,0-21.9,4.1-30.1,12.4s-12.4,18.3-12.4,30,4.1,21.8,12.4,30.1c8.3,8.3,18.3,12.5,30.1,12.5s13.9-2.2,21.2-6.4,12.6-9.5,16-15.6h0Z"/>
        <path class="cls-2" d="M607.8,546.9l20.7-52h25.6l-41.4,104.8c-2.1,7.1-6.6,13.1-13.3,18.1-6.8,5-13.8,7.5-21.2,7.5h-10.8v-23.9h10.8c2.6,0,5.1-.9,7.4-2.7s3.8-4,4.6-6.4l.2-.6,4.8-12.3-32.1-84.5h25.2l19.6,52.1h0Z"/>
        <path class="cls-2" d="M706.3,516.7h-.2c-6.8,0-12.7,2.4-17.4,7.3-4.8,4.8-7.2,10.7-7.2,17.4s2.4,12.6,7.2,17.4,10.6,7.3,17.4,7.3,7.9-1.2,12-3.5c4.2-2.4,7.2-5.2,9.2-8.6l3.2-5.2,19.8,9.3,2.2.9-4.3,7.3c-4,6.6-10.1,12.2-18.3,17s-16.2,7.1-23.9,7.1c-13.6,0-25.1-4.8-34.7-14.4-9.6-9.6-14.4-21.1-14.4-34.7s4.8-25.1,14.4-34.7c9.6-9.6,21.1-14.4,34.7-14.4s15.7,2.3,23.9,7c8.2,4.7,14.3,10.3,18.3,16.9l4.5,7.5-22.2,10.5-3.2-5.2c-1.9-3.4-4.9-6.2-9-8.6-4.2-2.4-8.2-3.5-12-3.5h0Z"/>
        <path class="cls-2" d="M788.2,457.5h.4v105.6c0,1.5.8,2.2,2.2,2.2h10.1v22.8h-13.2c-6.1,0-11.3-2.2-15.7-6.4-4.4-4.3-6.5-9.5-6.5-15.6v-108.6h22.8Z"/>
        <path class="cls-2" d="M832.4,506.7c9.6-9.6,21.1-14.5,34.7-14.5s25.1,4.8,34.7,14.4,14.4,21.1,14.4,34.7-4.8,25.2-14.4,34.8c-9.6,9.6-21.2,14.5-34.7,14.5s-25.1-4.8-34.7-14.5c-9.6-9.6-14.4-21.2-14.4-34.7s4.8-25.1,14.4-34.7h0ZM891.7,541.3h-.2c0-6.7-2.4-12.5-7.2-17.3-4.8-4.8-10.5-7.2-17.3-7.4-6.8,0-12.7,2.4-17.4,7.3-4.8,4.8-7.2,10.7-7.2,17.4s2.4,12.6,7.2,17.4,10.6,7.3,17.4,7.3,12.7-2.4,17.4-7.3c4.8-4.8,7.2-10.7,7.2-17.5h0Z"/>
        <path class="cls-2" d="M1013,531.6v56.7h-24.1v-56.9c-.2-4.3-2-8.1-5.2-11.2-3.2-3.1-7.1-4.7-11.6-4.7s-1.7,0-2.6.2c-7.8,2-11.8,5.4-11.8,10.3v62.1h-24.4v-93.3h24.2v6c2.5-2.4,5.8-4.4,10-6.1s7.9-2.5,11.3-2.5h2.6c6,0,11.1,1.1,15.3,3.2,4.2,2.1,7.4,4.5,9.4,7.2,2,2.7,3.6,6.2,4.8,10.5,1.1,4.3,1.7,7.6,1.9,9.9.1,2.3.2,5.2.2,8.7h0Z"/>
        <path class="cls-2" d="M1101.2,555.3l21.5,10.1c-2.4,4.1-4.5,7.3-6.5,9.7s-4.7,4.8-8,7.3c-7,5.2-17,7.9-30.2,7.9-13.2,0-24.7-4.5-34.6-13.7s-14.8-20.8-14.8-34.8,4.8-25.7,14.6-35.2c9.7-9.5,21.6-14.2,35.6-14.2s17.1,2.5,25.6,7.5c11.3,6.7,18.4,17.4,21.3,32.1,1.1,5.6,1.5,11.8,1.1,18.5h-71.6c1.9,4.8,4.9,8.8,9.1,11.8s9.2,4.6,15,4.6,10.3-.9,13.6-2.8c3.3-1.9,6.1-4.8,8.5-8.8h0ZM1100.5,530.3c-2.5-5.1-5.9-8.9-10.3-11.3-4.4-2.4-8.7-3.5-13.1-3.1-4.4.4-8.5,1.8-12.5,4.4s-7,5.9-9,10h44.8Z"/>
        <path class="cls-2" d="M1231.1,549.3c0,11.3-4.7,21-14.2,29-9.4,8-20.8,12-34,12s-21.6-3.1-30.4-9.3c-8.9-6.3-14.5-14.3-16.6-23.9l-1.5-6.9,22.8-10.5,2.2,10.8c1,4.8,3.5,8.5,7.7,10.8,4.3,2.7,9.6,4.1,15.7,4.1s12-1.6,16.5-4.8,6.8-7,6.8-11.5v-.8c-.2-5.7-3.1-9.6-8.6-11.8-4.6-1.9-9.3-3.1-14.2-3.7-6.6-.9-13.1-2.7-19.4-5.4-7.7-3.5-13.8-8.2-18.1-14.1-4.4-5.9-6.5-12.4-6.5-19.5,0-11.2,4.2-20.5,12.6-28.1,8.4-7.5,18.8-11.3,31.1-11.3s20.5,2.9,28.9,8.8c8.3,5.6,13.7,12.9,16.2,21.8l1.9,6.7-23.1,10.6-2.2-10.3c-.9-3.9-3.3-6.9-7.3-9.1-4.1-2.5-8.9-3.7-14.4-3.7s-10.2,1.3-13.7,4c-3.5,2.7-5.3,6.2-5.3,10.7s3.4,8.2,10.1,11.2c4.1,1.6,8.7,2.8,13.8,3.5,7.3,1.1,14.2,3.1,20.5,6,14.7,6.6,22.3,18,22.8,34.3h0Z"/>
        <path class="cls-2" d="M1246.9,588.1v-130.6h94v25h-69.2v28h65.3v24.8h-65.3v28h69.2v24.8h-94Z"/>
        <path class="cls-2" d="M1483.8,542.5c-2.3,7.4-5,13.5-8.1,18.2l18.7,18.7-24.2,11-12.3-11.9c-4.7,3.2-10.8,6-18.3,8.3-7.5,2.3-14.1,3.5-19.8,3.5-12.2,0-23.5-3-33.9-9-10.4-6-18.6-14.2-24.6-24.6-6-10.4-9.1-21.7-9.1-33.9s3-23.5,9.1-33.9c6-10.4,14.2-18.6,24.6-24.6,10.4-6,21.7-9,34-9s23.5,3,33.9,9,18.5,14.2,24.5,24.6,9.1,21.7,9.1,33.9v.2c0,5.7-1.2,12.3-3.4,19.7h0ZM1462.2,524v-1.3c0-11.7-4.1-21.7-12.4-29.9s-18.2-12.4-29.9-12.4-21.7,4.1-29.9,12.4c-8.3,8.3-12.4,18.2-12.4,29.8s4.1,21.6,12.4,29.8c8.3,8.3,18.2,12.4,29.9,12.4s6.2-.5,10.1-1.4c3.8-.9,7.1-2,9.7-3.3l-22.6-22.6,24.2-11.4,15.9,16.4c1.5-2.6,2.7-5.7,3.6-9.3.9-3.6,1.4-6.7,1.4-9.3h0Z"/>
      </g>
    </g>
  </g>
</svg>